<?xml version="1.0" encoding="UTF-8" standalone="no"?>
<!-- Created with Inkscape (http://www.inkscape.org/) -->

<svg
   xmlns:dc="http://purl.org/dc/elements/1.1/"
   xmlns:cc="http://creativecommons.org/ns#"
   xmlns:rdf="http://www.w3.org/1999/02/22-rdf-syntax-ns#"
   xmlns:svg="http://www.w3.org/2000/svg"
   xmlns="http://www.w3.org/2000/svg"
   xmlns:sodipodi="http://sodipodi.sourceforge.net/DTD/sodipodi-0.dtd"
   xmlns:inkscape="http://www.inkscape.org/namespaces/inkscape"
   width="210mm"
   height="297mm"
   viewBox="0 0 744.09448819 1052.3622047"
   id="svg2"
   version="1.1"
   inkscape:version="0.91 r13725"
   sodipodi:docname="lockfish.svg"
   inkscape:export-filename="/home/zaur/lockfish/lockfish.svg.png"
   inkscape:export-xdpi="22"
   inkscape:export-ydpi="22">
  <defs
     id="defs4">
    <filter
       inkscape:collect="always"
       style="color-interpolation-filters:sRGB"
       id="filter4188"
       x="-0.057614098"
       width="1.1152282"
       y="-0.15497482"
       height="1.3099496">
      <feGaussianBlur
         inkscape:collect="always"
         stdDeviation="5.7654318"
         id="feGaussianBlur4190" />
    </filter>
    <filter
       inkscape:collect="always"
       style="color-interpolation-filters:sRGB"
       id="filter4244"
       x="-0.10586949"
       width="1.211739"
       y="-0.06961882"
       height="1.1392376">
      <feGaussianBlur
         inkscape:collect="always"
         stdDeviation="3.0784665"
         id="feGaussianBlur4246" />
    </filter>
    <filter
       inkscape:collect="always"
       style="color-interpolation-filters:sRGB"
       id="filter4283"
       x="-0.11979015"
       width="1.2395803"
       y="-0.12766015"
       height="1.2553203">
      <feGaussianBlur
         inkscape:collect="always"
         stdDeviation="16.6062"
         id="feGaussianBlur4285" />
    </filter>
  </defs>
  <sodipodi:namedview
     id="base"
     pagecolor="#ffffff"
     bordercolor="#666666"
     borderopacity="1.0"
     inkscape:pageopacity="0.0"
     inkscape:pageshadow="2"
     inkscape:zoom="0.35"
     inkscape:cx="226.90743"
     inkscape:cy="673.41996"
     inkscape:document-units="px"
     inkscape:current-layer="layer1"
     showgrid="false"
     inkscape:window-width="1920"
     inkscape:window-height="1015"
     inkscape:window-x="0"
     inkscape:window-y="0"
     inkscape:window-maximized="1" />
  <metadata
     id="metadata7">
    <rdf:RDF>
      <cc:Work
         rdf:about="">
        <dc:format>image/svg+xml</dc:format>
        <dc:type
           rdf:resource="http://purl.org/dc/dcmitype/StillImage" />
        <dc:title />
      </cc:Work>
    </rdf:RDF>
  </metadata>
  <g
     inkscape:label="Layer 1"
     inkscape:groupmode="layer"
     id="layer1">
    <rect
       style="opacity:1;fill:#ffffff;fill-opacity:1;stroke:#000000;stroke-width:0.1;stroke-linecap:round;stroke-linejoin:round;stroke-miterlimit:4;stroke-dasharray:none;stroke-dashoffset:0;stroke-opacity:1"
       id="rect4151"
       width="2082.9348"
       height="874.79211"
       x="-1341.4825"
       y="-68.907112" />
    <path
       style="opacity:0.5;fill:#000000;fill-opacity:1;stroke:none;stroke-width:2.53999996;stroke-linecap:round;stroke-linejoin:round;stroke-miterlimit:4;stroke-dasharray:none;stroke-dashoffset:0;stroke-opacity:1;filter:url(#filter4283)"
       d="m 440.75307,209.08482 c -17.04766,0.19586 -34.01735,5.52457 -46.4707,17.49414 -12.68552,14.49214 -17.13253,32.26877 -16.39258,50.43164 -0.84264,3.90348 -1.19988,7.88771 -0.78516,11.92969 l 2.24219,1.54492 c 2.85452,16.62505 9.41474,32.97636 17.39453,46.83789 31.9632,59.34109 89.62704,108.0326 157.81055,117.20899 22.60597,-8.95246 44.26378,11.64441 48.73828,32.85937 0.69044,20.32891 35.0206,32.48626 26.17187,4.01758 -7.72186,-19.38972 13.20372,-31.19797 15.45508,-6.10547 -0.64561,22.07929 21.47141,57.13829 31.25586,19.06445 1.80491,-22.30864 43.17193,-30.75906 31.33985,-51.24218 -20.87995,-7.75047 -44.7421,-7.40151 -64.56055,-19.3418 -20.55659,-8.91022 -26.86769,-31.98735 -22.27734,-52.30664 -12.06903,-22.46653 12.29729,-43.60836 31.41796,-24.86133 10.69047,8.38367 53.9022,2.12309 32.61133,-11.25391 -20.29615,-1.92608 -44.89786,6.01933 -60.3789,-11.91601 C 577.2895,285.78198 530.6381,230.6181 463.63198,211.85826 c -7.36378,-1.89038 -15.12997,-2.86247 -22.87891,-2.77344 z M 603.81948,318.6981 c 8.09516,10.96964 19.75259,19.07715 30.45898,27.36524 -15.49259,14.09681 -43.36915,-24.35598 -30.45898,-27.36524 z m 85.65039,29.0957 0.60351,0.0254 -0.60351,-0.0254 z m -18.85156,0.67774 c 5.32357,0.0533 10.63631,0.48525 15.96093,0.52539 -4.15933,17.03299 -47.17951,-0.0579 -18.24414,-0.52344 0.76096,-0.0101 1.52269,-0.01 2.28321,-0.002 z m -49.21094,79.38086 c 21.05188,2.46497 38.09495,18.90438 59.67968,20.73633 8.97337,2.23036 18.0149,4.17797 26.98829,6.4082 -20.46642,8.99259 -29.23585,43.22367 -49.29688,44.52734 -3.77712,-16.54042 -22.96401,-62.52742 -39.1543,-33.27343 2.31169,11.1214 -1.95299,36.20857 -12.17773,15.39453 -21.44162,-15.26829 -12.66134,-52.30091 13.96094,-53.79297 z m -1.76953,83.41601 0.53515,0.11914 -0.53515,-0.11914 z"
       id="path4250"
       inkscape:connector-curvature="0"
       transform="matrix(0.82620218,0,0,0.82620218,97.909004,336.60764)" />
    <path
       style="opacity:1;fill:#342f00;fill-opacity:0.41176471;stroke:#000000;stroke-width:0.04087884;stroke-linecap:round;stroke-linejoin:round;stroke-miterlimit:4;stroke-dasharray:none;stroke-dashoffset:0;stroke-opacity:1;filter:url(#filter4244)"
       d="m 104.83146,27.926976 0,37.577398 -6.194101,0 0,68.547916 69.787051,0 0,-68.547916 -7.02046,0 0,-37.577398 -56.57249,0 z m 10.73629,16.10483 35.09991,0 0,21.472568 -35.09991,0 0,-21.472568 z"
       id="rect4197"
       inkscape:connector-curvature="0" />
    <path
       inkscape:connector-curvature="0"
       id="path4210"
       d="m 109.62968,30.199819 0,37.577395 -6.1941,0 0,68.547916 69.78705,0 0,-68.547916 -7.02046,0 0,-37.577395 -56.57249,0 z m 10.73629,16.104825 35.09991,0 0,21.47257 -35.09991,0 0,-21.47257 z"
       style="opacity:1;fill:#f0d900;fill-opacity:1;stroke:#000000;stroke-width:0.04087884;stroke-linecap:round;stroke-linejoin:round;stroke-miterlimit:4;stroke-dasharray:none;stroke-dashoffset:0;stroke-opacity:1" />
    <path
       style="opacity:0.772;fill:#06001d;fill-opacity:1;stroke:none;stroke-width:2.53999996;stroke-linecap:round;stroke-linejoin:round;stroke-miterlimit:4;stroke-dasharray:none;stroke-dashoffset:0;stroke-opacity:1"
       d="m 339.99639,202.29323 c -27.41871,31.32358 -16.39851,77.98639 2.4599,110.74492 31.9632,59.34109 89.62703,108.03258 157.81054,117.20897 22.60597,-8.95246 44.26311,11.64418 48.7376,32.85914 0.69045,20.32891 35.02002,32.48567 26.1713,4.01699 -7.72188,-19.38972 13.20485,-31.19826 15.45621,-6.10576 -0.64561,22.07929 21.47139,57.13932 31.25585,19.06548 1.8049,-22.30864 43.17136,-30.75907 31.33928,-51.24219 -20.87994,-7.75047 -44.7411,-7.40231 -64.55955,-19.3426 -20.55659,-8.91022 -26.86868,-31.98647 -22.27832,-52.30576 -12.06904,-22.46653 12.29794,-43.60991 31.41862,-24.86288 10.69046,8.38367 53.90154,2.12404 32.61067,-11.25296 -20.29615,-1.92608 -44.89798,6.01904 -60.37902,-11.9163 -47.03584,-47.66417 -93.68776,-102.82856 -160.69389,-121.5884 -23.56409,-6.04922 -51.23522,-2.68894 -69.34919,14.72135 z m 295.7916,121.24119 -0.60449,-0.0272 0.60449,0.0272 z m -3.4941,1.17666 c -4.15933,17.03299 -47.17976,-0.0576 -18.24438,-0.52314 6.08767,-0.0808 12.1591,0.47727 18.24438,0.52314 z m -19.69126,9.79454 c -3.39126,-0.91777 -3.77575,-1.02182 0,0 z M 579.99284,321.7777 c -15.49258,14.09681 -43.36864,-24.35521 -30.45847,-27.36447 8.09517,10.96964 19.75208,19.07638 30.45847,27.36447 z m 73.79599,108.93311 c -20.46641,8.99259 -29.23593,43.22475 -49.29696,44.52842 -3.77711,-16.54042 -22.96276,-62.52769 -39.15305,-33.2737 2.31169,11.1214 -1.95393,36.20758 -12.17866,15.39354 -21.44162,-15.26829 -12.66108,-52.29941 13.9612,-53.79147 21.05187,2.46497 38.09516,18.90333 59.6799,20.73528 8.97336,2.23036 18.01418,4.1777 26.98757,6.40793 z m -87.90083,56.39039 -0.53585,-0.11877 0.53585,0.11877 z"
       id="path4136"
       inkscape:connector-curvature="0" />
    <ellipse
       ry="44.642853"
       rx="120.08377"
       cy="285.57651"
       cx="283.21426"
       id="ellipse4148"
       style="opacity:0.59200003;fill:#c4c4c4;fill-opacity:0.48170734;stroke:none;stroke-width:2.53999996;stroke-linecap:round;stroke-linejoin:round;stroke-miterlimit:4;stroke-dasharray:none;stroke-dashoffset:0;stroke-opacity:1;filter:url(#filter4188)"
       transform="matrix(0.70710678,0.70710678,-0.70710678,0.70710678,425.25662,-69.844826)" />
    <path
       style="opacity:1;fill:#ffffff;fill-opacity:1;stroke:none;stroke-width:2.53999996;stroke-linecap:round;stroke-linejoin:round;stroke-miterlimit:4;stroke-dasharray:none;stroke-dashoffset:0;stroke-opacity:1"
       d="m 330.94606,233.32338 c -4.68671,9.71117 -9.2577,20.30427 -8.12637,31.33044 26.02015,17.92973 52.04029,35.85945 78.06043,53.78918 -23.31135,-28.37321 -46.62271,-56.74642 -69.93406,-85.11962 z"
       id="path4136-3"
       inkscape:connector-curvature="0" />
    <path
       style="fill:none;fill-rule:evenodd;stroke:#868686;stroke-width:1px;stroke-linecap:butt;stroke-linejoin:miter;stroke-opacity:1"
       d="m 456.41625,323.25961 c -11.21506,-15.803 -28.09123,8.37929 -30.64588,18.83138 -10.27723,1.60626 -25.79452,-4.33555 -16.32624,17.02906"
       id="path4223"
       inkscape:connector-curvature="0" />
    <path
       style="fill:none;fill-rule:evenodd;stroke:#868686;stroke-width:1px;stroke-linecap:butt;stroke-linejoin:miter;stroke-opacity:1"
       d="m 474.09391,344.97789 c -2.60312,-14.03062 -24.08086,0.26416 -15.02504,9.46005 -11.04705,-2.58703 -17.5933,7.72432 -20.87371,11.4317 -14.67121,-1.65636 -17.27417,15.74027 -8.04287,24.06005"
       id="path4225"
       inkscape:connector-curvature="0" />
    <path
       style="fill:none;fill-rule:evenodd;stroke:#868686;stroke-width:1px;stroke-linecap:butt;stroke-linejoin:miter;stroke-opacity:1"
       d="m 490.25635,368.21141 c -11.05171,-13.74527 -15.63461,12.98929 -26.06609,9.47963 -3.56264,11.05096 -11.83906,9.98639 -19.64791,13.67875 -4.05488,5.44684 -1.14409,14.00313 4.80282,16.74264"
       id="path4227"
       inkscape:connector-curvature="0" />
    <path
       style="opacity:1;fill:#1b1b1b;fill-opacity:0.48170734;stroke:#000000;stroke-width:0.082897;stroke-linecap:round;stroke-linejoin:round;stroke-miterlimit:4;stroke-dasharray:none;stroke-dashoffset:0;stroke-opacity:1"
       d="m 403.12823,228.07302 c -9.42123,10.16665 -27.10551,8.03941 -31.82848,-3.35276 -5.34742,-10.55293 2.68851,-26.45917 15.17675,-29.45736 11.87612,-3.44033 23.69814,5.54165 23.36607,17.46941 -0.005,5.49224 -2.60133,11.20714 -6.71434,15.34071 z"
       id="path4150"
       inkscape:connector-curvature="0" />
    <path
       inkscape:connector-curvature="0"
       style="opacity:1;fill:#ffffff;fill-opacity:1;stroke:none;stroke-width:2.53999996;stroke-linecap:round;stroke-linejoin:round;stroke-miterlimit:4;stroke-dasharray:none;stroke-dashoffset:0;stroke-opacity:1"
       d="m 391.13734,206.3508 c -0.64744,-0.60176 -1.42728,-1.00352 -2.26634,-1.26091 -0.002,1.65005 -1.44288,4.31404 -3.86009,6.64708 -2.5325,2.65087 -5.1259,3.85259 -6.76032,3.77998 1.67133,4.47546 8.53779,6.49898 12.56496,2.02465 2.75906,-2.54272 3.25666,-6.56928 1.61446,-9.38712 -0.33177,-0.72079 -0.77227,-1.31993 -1.29267,-1.80368 z"
       id="ellipse4154" />
    <path
       style="opacity:1;fill:#ffffff;fill-opacity:1;stroke:#000000;stroke-width:0.1;stroke-linecap:round;stroke-linejoin:round;stroke-miterlimit:4;stroke-dasharray:none;stroke-dashoffset:0;stroke-opacity:1"
       d="m 138.05943,101.02371 a 5.7452426,5.7452426 0 0 0 -5.74414,5.74609 5.7452426,5.7452426 0 0 0 1.9707,4.32617 l 0,10.90821 7.14258,0 0,-10.58985 a 5.7452426,5.7452426 0 0 0 2.37696,-4.64453 5.7452426,5.7452426 0 0 0 -5.7461,-5.74609 z"
       id="rect4205"
       inkscape:connector-curvature="0" />
    <text
       xml:space="preserve"
       style="font-style:normal;font-weight:normal;font-size:40px;line-height:125%;font-family:sans-serif;letter-spacing:0px;word-spacing:0px;fill:#000000;fill-opacity:1;stroke:none;stroke-width:1px;stroke-linecap:butt;stroke-linejoin:miter;stroke-opacity:1"
       x="-899.99994"
       y="383.79077"
       id="text4153"
       sodipodi:linespacing="125%"><tspan
         sodipodi:role="line"
         id="tspan4155"
         x="-899.99994"
         y="383.79077"
         style="font-style:normal;font-variant:normal;font-weight:normal;font-stretch:normal;font-size:180px;font-family:STIXSizeFourSym;-inkscape-font-specification:STIXSizeFourSym">lockfish</tspan></text>
  </g>
</svg>
